<svg width="158" height="192" viewBox="0 0 158 192" fill="none" xmlns="http://www.w3.org/2000/svg">
<rect width="158" height="192" fill="#454545"/>
<rect x="11" y="13" width="137" height="166" fill="#959595"/>
<rect x="21" y="41" width="111" height="14" fill="#B7B7B7"/>
<rect x="21" y="75" width="111" height="14" fill="#B7B7B7"/>
<rect x="21" y="109" width="68" height="14" fill="#B7B7B7"/>
<path d="M86.3817 123.845C86.0373 123.845 85.7071 123.982 85.4636 124.226C85.2201 124.469 85.0833 124.799 85.0833 125.144V144.704C85.0833 145.422 85.6642 146.003 86.3817 146.003C86.7062 146.003 86.9796 145.9 87.2017 145.729L90.4646 143.081L93.3004 149.265C93.5225 149.727 93.9837 150 94.4792 150C94.6671 150 94.855 150 95.0429 149.863L99.7579 147.677C100.407 147.369 100.715 146.583 100.373 145.951L97.52 139.75L101.637 138.981C101.92 138.908 102.175 138.753 102.372 138.537C102.833 137.99 102.765 137.188 102.167 136.692L87.2358 124.136L87.2187 124.153C86.9851 123.954 86.6883 123.845 86.3817 123.845ZM93.625 126.083V122.667H102.167V126.083H93.625ZM91.6262 117.132L96.4608 112.297L98.8696 114.706L94.035 119.54L91.6262 117.132ZM85.0833 109H88.5V117.542H85.0833V109ZM74.7137 134.044L79.5483 129.21L81.9571 131.618L77.1225 136.453L74.7137 134.044ZM74.7137 114.706L77.1225 112.297L81.9571 117.132L79.5483 119.54L74.7137 114.706ZM79.9583 126.083H71.4167V122.667H79.9583V126.083Z" fill="white"/>
</svg>
